<?xml version="1.0" encoding="UTF-8"?>
<svg version="1.1" xmlns="http://www.w3.org/2000/svg" width="512" height="512">
<path d="M0 0 C5.11021623 3.48423834 7.46695819 7.16739547 9.75 12.875 C9.75 16.835 9.75 20.795 9.75 24.875 C31.86 24.875 53.97 24.875 76.75 24.875 C76.75 20.915 76.75 16.955 76.75 12.875 C78.41295174 6.81011719 81.64356947 3.33344613 86.75 -0.125 C92.22578663 -1.95026221 97.65740347 -1.92627023 103 0.375 C107.7418298 3.12526129 109.5564268 5.80236197 111.75 10.875 C111.75 15.495 111.75 20.115 111.75 24.875 C134.19 24.875 156.63 24.875 179.75 24.875 C179.75 19.925 179.75 14.975 179.75 9.875 C183.64090327 4.03864509 186.17745454 1.06584849 192.75 -1.125 C199.11696964 -1.6645737 203.43281245 -0.75250351 208.75 2.875 C215.4669355 9.5919355 214.75 15.30871842 214.75 24.875 C236.86 24.875 258.97 24.875 281.75 24.875 C281.75 20.585 281.75 16.295 281.75 11.875 C283.43657054 6.41844825 287.1485139 3.08558234 291.75 -0.125 C296.8792104 -1.8347368 301.81147216 -1.77117595 306.9375 -0.0625 C311.40626455 3.01598225 315.01724831 6.67674494 316.75 11.875 C316.81937062 14.10318441 316.83457084 16.33334524 316.8125 18.5625 C316.80347656 19.74199219 316.79445313 20.92148437 316.78515625 22.13671875 C316.76775391 23.49216797 316.76775391 23.49216797 316.75 24.875 C317.40484375 24.85928955 318.0596875 24.8435791 318.734375 24.82739258 C321.73949331 24.76452066 324.74447263 24.72584512 327.75 24.6875 C328.77996094 24.66236328 329.80992187 24.63722656 330.87109375 24.61132812 C338.29651895 24.54038457 343.88694719 25.19863662 350.140625 29.53125 C350.75421875 30.1396875 351.3678125 30.748125 352 31.375 C352.62390625 31.9628125 353.2478125 32.550625 353.890625 33.15625 C361.24431011 43.90869713 360.29514987 55.85527234 360.20410156 68.3190918 C360.20297197 70.48817422 360.20360912 72.65725818 360.20587158 74.82633972 C360.2070153 80.68927314 360.18356127 86.55187663 360.15557575 92.41473365 C360.13050503 98.55127761 360.12821562 104.68782984 360.12347412 110.82441711 C360.11106102 122.4334775 360.07826186 134.04238651 360.03807616 145.65138036 C359.99330666 158.87264427 359.97135837 172.09391556 359.95129442 185.31523645 C359.90952784 212.50190809 359.83920812 239.68844555 359.75 266.875 C360.90314697 267.32637329 360.90314697 267.32637329 362.07958984 267.78686523 C387.78651587 278.26188529 408.13215869 302.79882158 418.75 327.875 C431.44579366 359.1506947 430.76614183 392.8852928 417.88720703 423.95654297 C405.44282363 452.69075495 381.41915401 475.0491469 352.59326172 486.75048828 C321.14816392 498.90944631 287.41743456 497.46298519 256.62890625 484.12890625 C229.39900878 471.69104718 208.69991218 449.01970913 196.75 421.875 C196.39389851 420.54756615 196.05474729 419.21515595 195.75 417.875 C194.50078546 417.87868717 193.25157091 417.88237434 191.96450138 417.88617325 C162.29539323 417.97284754 132.62631779 418.03878349 102.95711401 418.07926132 C99.30352175 418.08426401 95.64992976 418.08944131 91.99633789 418.09472656 C91.26898868 418.0957758 90.54163947 418.09682505 89.79224937 418.09790608 C78.0227432 418.11530044 66.25331535 418.14683275 54.48385561 418.18361118 C42.40285447 418.22104765 30.32189428 418.24324156 18.24083751 418.25135398 C11.45694292 418.25634485 4.67321153 418.26832568 -2.11062431 418.29792023 C-8.49717516 418.32509046 -14.8834755 418.33344157 -21.27007866 418.32743073 C-23.61258302 418.32853022 -25.95509586 418.33647423 -28.2975502 418.3518219 C-31.5001816 418.37177433 -34.70187179 418.36691933 -37.90452576 418.35601807 C-38.82770157 418.36766943 -39.75087738 418.3793208 -40.70202821 418.39132524 C-48.19411642 418.32257233 -54.16341668 416.40038635 -60 411.625 C-65.50187208 404.90048968 -68.371112 399.69741506 -68.38142776 390.92625141 C-68.38526891 389.70116566 -68.38911005 388.47607991 -68.3930676 387.21387035 C-68.39228736 385.8523224 -68.39140858 384.49077451 -68.39044189 383.12922668 C-68.39302562 381.68438296 -68.3960388 380.23953996 -68.3994453 378.79469794 C-68.4075178 374.81915487 -68.40930501 370.84362984 -68.41004276 366.86807954 C-68.41189289 362.58231584 -68.41944005 358.29656151 -68.42617798 354.01080322 C-68.43976384 344.6367691 -68.44578648 335.26273924 -68.45018864 325.88869691 C-68.45295076 320.03581479 -68.45718807 314.18293433 -68.46169281 308.33005333 C-68.47388605 292.12624751 -68.4841851 275.92244301 -68.4875679 259.7186327 C-68.48778747 258.68140569 -68.48800703 257.64417868 -68.48823325 256.57552056 C-68.48845153 255.53580535 -68.48866981 254.49609014 -68.4888947 253.4248684 C-68.48933817 251.31799495 -68.48978473 249.2111215 -68.49023438 247.10424805 C-68.4904558 246.05916506 -68.49067723 245.01408208 -68.49090537 243.93732991 C-68.49485308 227.00457836 -68.51230604 210.07186985 -68.5355939 193.13913492 C-68.5593083 175.75598235 -68.5717698 158.37285138 -68.57293582 140.98968238 C-68.57385256 131.22912387 -68.5796045 121.46862144 -68.59775543 111.70807838 C-68.61315763 103.39631927 -68.61827619 95.08463356 -68.61001733 86.77286289 C-68.60611119 82.53278188 -68.60703864 78.29284868 -68.62107468 74.05278587 C-68.63381575 70.16835043 -68.63261435 66.28417384 -68.62048396 62.39973875 C-68.61852731 60.99728238 -68.62160396 59.59480767 -68.63032833 58.19237707 C-68.68875013 48.16316956 -68.29058399 39.04055219 -61.08520508 31.43334961 C-53.61268848 25.08812233 -46.12660662 24.18728467 -36.625 24.5625 C-35.52542969 24.58505859 -34.42585938 24.60761719 -33.29296875 24.63085938 C-30.61050164 24.68917388 -27.93101567 24.77094816 -25.25 24.875 C-25.30800781 23.9571875 -25.36601563 23.039375 -25.42578125 22.09375 C-25.88162614 9.69476905 -25.88162614 9.69476905 -21.859375 4.4296875 C-15.64591457 -1.57263592 -8.05582842 -2.78855599 0 0 Z " fill="#D3E5E6" transform="translate(76.25,9.125)"/>
<path d="M0 0 C1.03253906 0.33515625 2.06507813 0.6703125 3.12890625 1.015625 C18.50961296 6.37528231 30.56045233 15.67120867 42 27 C42.73605469 27.67546875 43.47210938 28.3509375 44.23046875 29.046875 C65.22269801 48.65638257 75.96001406 78.80120612 77.28125 106.9765625 C78.20747311 140.02471746 66.92118851 170.41387425 44.609375 194.765625 C22.22400869 218.36305852 -7.9855393 231.4407075 -40.48535156 232.3515625 C-73.60077787 232.66021113 -103.61761852 220.61976317 -127.59082031 197.87792969 C-141.74086874 183.97572009 -151.55436567 167.83725285 -157.375 148.875 C-157.61379883 148.10075684 -157.85259766 147.32651367 -158.09863281 146.52880859 C-161.48604032 134.73661068 -162.36879344 122.7822564 -162.3125 110.5625 C-162.30758545 109.29132324 -162.3026709 108.02014648 -162.29760742 106.71044922 C-162.18567227 97.75678527 -161.55571625 89.62294507 -159 81 C-158.52433594 79.24042969 -158.52433594 79.24042969 -158.0390625 77.4453125 C-148.6160293 45.83471177 -126.27010901 20.83952497 -97.625 5.25 C-89.98268281 1.24248512 -82.33908167 -1.70854976 -74 -4 C-72.9275 -4.31839844 -71.855 -4.63679688 -70.75 -4.96484375 C-47.7676608 -10.73702848 -22.13366061 -7.7035187 0 0 Z " fill="#6AC579" transform="translate(427,272)"/>
<path d="M0 0 C5.11021623 3.48423834 7.46695819 7.16739547 9.75 12.875 C9.75 16.835 9.75 20.795 9.75 24.875 C31.86 24.875 53.97 24.875 76.75 24.875 C76.75 20.915 76.75 16.955 76.75 12.875 C78.41295174 6.81011719 81.64356947 3.33344613 86.75 -0.125 C92.22578663 -1.95026221 97.65740347 -1.92627023 103 0.375 C107.7418298 3.12526129 109.5564268 5.80236197 111.75 10.875 C111.75 15.495 111.75 20.115 111.75 24.875 C134.19 24.875 156.63 24.875 179.75 24.875 C179.75 19.925 179.75 14.975 179.75 9.875 C183.64090327 4.03864509 186.17745454 1.06584849 192.75 -1.125 C199.11696964 -1.6645737 203.43281245 -0.75250351 208.75 2.875 C215.4669355 9.5919355 214.75 15.30871842 214.75 24.875 C236.86 24.875 258.97 24.875 281.75 24.875 C281.75 20.585 281.75 16.295 281.75 11.875 C283.43657054 6.41844825 287.1485139 3.08558234 291.75 -0.125 C296.8792104 -1.8347368 301.81147216 -1.77117595 306.9375 -0.0625 C311.40626455 3.01598225 315.01724831 6.67674494 316.75 11.875 C316.81937062 14.10318441 316.83457084 16.33334524 316.8125 18.5625 C316.80347656 19.74199219 316.79445313 20.92148437 316.78515625 22.13671875 C316.76775391 23.49216797 316.76775391 23.49216797 316.75 24.875 C317.40484375 24.85928955 318.0596875 24.8435791 318.734375 24.82739258 C321.73949331 24.76452066 324.74447263 24.72584512 327.75 24.6875 C328.77996094 24.66236328 329.80992187 24.63722656 330.87109375 24.61132812 C338.29651895 24.54038457 343.88694719 25.19863662 350.140625 29.53125 C350.75421875 30.1396875 351.3678125 30.748125 352 31.375 C352.62390625 31.9628125 353.2478125 32.550625 353.890625 33.15625 C364.52563726 48.70660407 359.75 66.51341784 359.75 84.875 C218.51 84.875 77.27 84.875 -68.25 84.875 C-68.25 38.99770494 -68.25 38.99770494 -61.08520508 31.43334961 C-53.61268848 25.08812233 -46.12660662 24.18728467 -36.625 24.5625 C-35.52542969 24.58505859 -34.42585938 24.60761719 -33.29296875 24.63085938 C-30.61050164 24.68917388 -27.93101567 24.77094816 -25.25 24.875 C-25.30800781 23.9571875 -25.36601563 23.039375 -25.42578125 22.09375 C-25.88162614 9.69476905 -25.88162614 9.69476905 -21.859375 4.4296875 C-15.64591457 -1.57263592 -8.05582842 -2.78855599 0 0 Z " fill="#E15959" transform="translate(76.25,9.125)"/>
<path d="M0 0 C0.85095749 -0.00807175 1.70191498 -0.01614349 2.57865906 -0.02445984 C4.38176434 -0.03830169 6.18489584 -0.0490234 7.98803711 -0.05688477 C10.74057942 -0.07408664 13.49191713 -0.11796924 16.24414062 -0.16210938 C17.99608492 -0.17223738 19.74803942 -0.18075315 21.5 -0.1875 C22.32099686 -0.20500809 23.14199371 -0.22251617 23.98786926 -0.24055481 C28.00796327 -0.22535918 29.96771773 -0.06725125 33.44604492 2.13989258 C37.18405782 6.05558068 36.64265371 9.85385159 36.6875 15.0078125 C36.69557175 15.88096603 36.70364349 16.75411957 36.71195984 17.6537323 C36.72580239 19.50391655 36.73652378 21.35412637 36.74438477 23.2043457 C36.76158795 26.02930322 36.80547041 28.85308746 36.84960938 31.67773438 C36.85973722 33.47525181 36.86825304 35.2727792 36.875 37.0703125 C36.89250809 37.91318314 36.91001617 38.75605377 36.92805481 39.62446594 C36.9130544 43.69556611 36.77286824 45.72590201 34.54760742 49.2487793 C30.67173709 52.92352826 26.98800099 52.43110531 21.8984375 52.4765625 C21.04748001 52.48463425 20.19652252 52.49270599 19.31977844 52.50102234 C17.51667316 52.51486419 15.71354166 52.5255859 13.91040039 52.53344727 C11.15785808 52.55064914 8.40652037 52.59453174 5.65429688 52.63867188 C3.90235258 52.64879988 2.15039808 52.65731565 0.3984375 52.6640625 C-0.42255936 52.68157059 -1.24355621 52.69907867 -2.08943176 52.71711731 C-6.10952577 52.70192168 -8.06928023 52.54381375 -11.54760742 50.33666992 C-15.28562032 46.42098182 -14.74421621 42.62271091 -14.7890625 37.46875 C-14.79713425 36.59559647 -14.80520599 35.72244293 -14.81352234 34.8228302 C-14.82736489 32.97264595 -14.83808628 31.12243613 -14.84594727 29.2722168 C-14.86315045 26.44725928 -14.90703291 23.62347504 -14.95117188 20.79882812 C-14.96129972 19.00131069 -14.96981554 17.2037833 -14.9765625 15.40625 C-14.99407059 14.56337936 -15.01157867 13.72050873 -15.02961731 12.85209656 C-15.0146169 8.78099639 -14.87443074 6.75066049 -12.64916992 3.2277832 C-8.77329959 -0.44696576 -5.08956349 0.04545719 0 0 Z " fill="#AAC7C8" transform="translate(253.55078125,229.76171875)"/>
<path d="M0 0 C0.82072998 -0.00241196 1.64145996 -0.00482391 2.48706055 -0.00730896 C4.21505587 -0.0063334 5.94308357 0.0069907 7.67089844 0.03198242 C10.30512417 0.06631013 12.93599421 0.05262372 15.5703125 0.03320312 C17.25522251 0.04010209 18.94012392 0.04977494 20.625 0.0625 C21.79712036 0.0550602 21.79712036 0.0550602 22.99291992 0.04747009 C28.18637078 0.15846691 31.18630743 1.20680526 35.3125 4.62890625 C36.95616184 7.91622993 36.49705332 11.56544845 36.515625 15.1796875 C36.52132507 16.03064499 36.52702515 16.88160248 36.53289795 17.75834656 C36.54235298 19.56145991 36.54888392 21.36459058 36.55273438 23.16772461 C36.56242487 25.92006823 36.59343675 28.67166033 36.625 31.42382812 C36.63153163 33.17577682 36.63678147 34.92773085 36.640625 36.6796875 C36.6529718 37.50068436 36.6653186 38.32168121 36.67803955 39.16755676 C36.66013016 43.78634591 36.40244213 46.9383359 33.3125 50.62890625 C29.69768429 53.44202765 25.20487388 52.97030186 20.8203125 53 C19.58497269 53.01354271 19.58497269 53.01354271 18.32467651 53.02735901 C16.58481471 53.04184499 14.84489864 53.05074414 13.10498047 53.05444336 C10.45316081 53.06633602 7.80367232 53.11553055 5.15234375 53.16601562 C3.45834464 53.17548115 1.7643313 53.18271557 0.0703125 53.1875 C-1.11121902 53.21679848 -1.11121902 53.21679848 -2.31661987 53.24668884 C-6.12610272 53.2157118 -8.99084971 52.86615675 -12.18505859 50.68774414 C-15.62806905 46.47920971 -15.55766609 43.42239492 -15.484375 38.12890625 C-15.49011536 37.21560547 -15.49585571 36.30230469 -15.50177002 35.36132812 C-15.50584383 33.43487053 -15.4948354 31.50832952 -15.46972656 29.58203125 C-15.43759309 26.63743701 -15.46943264 23.6983303 -15.5078125 20.75390625 C-15.50384748 18.87889417 -15.49615978 17.00388549 -15.484375 15.12890625 C-15.49652039 14.25169922 -15.50866577 13.37449219 -15.5211792 12.47070312 C-15.41788032 7.96823599 -15.12125061 6.1574078 -12.18066406 2.57446289 C-7.85728206 0.16650712 -4.85933293 -0.08244808 0 0 Z " fill="#AAC7C8" transform="translate(168.6875,229.37109375)"/>
<path d="M0 0 C1.84387872 -0.0165225 3.68769438 -0.04376353 5.53125 -0.08203125 C8.19101156 -0.1369702 10.84926787 -0.158703 13.50952148 -0.17333984 C14.32849411 -0.19600922 15.14746674 -0.21867859 15.99125671 -0.24203491 C19.87950364 -0.22777518 22.84442587 0.06255152 26.109375 2.2890625 C29.52513909 6.50140145 29.46155635 9.56834403 29.38842773 14.85009766 C29.39416809 15.76339844 29.39990845 16.67669922 29.40582275 17.61767578 C29.40989656 19.54413338 29.39888813 21.47067439 29.3737793 23.39697266 C29.34164583 26.3415669 29.37348538 29.2806736 29.41186523 32.22509766 C29.40790022 34.10010974 29.40021251 35.97511842 29.38842773 37.85009766 C29.40664581 39.1659082 29.40664581 39.1659082 29.42523193 40.50830078 C29.3219553 45.00979797 29.02390284 46.82246111 26.08691406 50.40673828 C21.74705804 52.81962184 18.74343418 53.04571403 13.86889648 52.94384766 C13.04579483 52.94388794 12.22269318 52.94392822 11.37464905 52.94396973 C9.64242882 52.93863025 7.91020792 52.92111483 6.17822266 52.89208984 C3.53334253 52.85016565 0.89100674 52.85103132 -1.75415039 52.85791016 C-3.44231905 52.84741861 -5.13047464 52.83448068 -6.81860352 52.81884766 C-7.60517838 52.81864624 -8.39175323 52.81844482 -9.2021637 52.8182373 C-13.75237879 52.72053415 -16.85373301 52.27931852 -20.40844727 49.35009766 C-23.28050458 45.6949003 -22.75036279 41.04788935 -22.77954102 36.60400391 C-22.78856949 35.75587631 -22.79759796 34.90774872 -22.80690002 34.03392029 C-22.82138628 32.24278282 -22.83028523 30.45159262 -22.83398438 28.66040039 C-22.8458924 25.92519886 -22.89510043 23.19224594 -22.94555664 20.45751953 C-22.9550202 18.71469197 -22.96225556 16.97185059 -22.96704102 15.22900391 C-22.98657333 14.41428116 -23.00610565 13.59955841 -23.02622986 12.76014709 C-22.99166427 8.39505981 -22.8234531 6.85239118 -19.93603516 3.35766602 C-19.10193115 2.69516846 -18.26782715 2.0326709 -17.40844727 1.35009766 C-14.5257906 -1.53255901 -4.08521285 0.02683584 0 0 Z " fill="#AAC7C8" transform="translate(90.408447265625,229.64990234375)"/>
<path d="M0 0 C0.91567245 -0.00241196 1.83134491 -0.00482391 2.77476501 -0.00730896 C4.70543765 -0.00633174 6.63613873 0.00703209 8.56665039 0.03198242 C11.52131222 0.06633612 14.47298961 0.05262444 17.42773438 0.03320312 C19.30600231 0.04010061 21.18426253 0.04977211 23.0625 0.0625 C24.38605247 0.0550602 24.38605247 0.0550602 25.73634338 0.04747009 C29.38683315 0.11759164 31.8092095 0.25788356 35.01928711 2.07446289 C37.23585652 5.99136304 37.03659777 9.63675768 36.99609375 14.06640625 C36.99992065 14.98349365 37.00374756 15.90058105 37.00769043 16.84545898 C37.01040924 18.78207498 37.00305021 20.71872772 36.98632812 22.65527344 C36.96491769 25.61867178 36.98613044 28.57964576 37.01171875 31.54296875 C37.00907547 33.4257866 37.00395048 35.30860294 36.99609375 37.19140625 C37.00419067 38.07691162 37.0122876 38.96241699 37.02062988 39.87475586 C36.92706261 46.01671463 36.92706261 46.01671463 34.55664062 49.15625 C30.43577842 52.05739855 26.81052803 51.82345495 21.9140625 51.8671875 C21.06310501 51.87525925 20.21214752 51.88333099 19.33540344 51.89164734 C17.53229816 51.90548919 15.72916666 51.9162109 13.92602539 51.92407227 C11.17348308 51.94127414 8.42214537 51.98515674 5.66992188 52.02929688 C3.91797758 52.03942488 2.16602308 52.04794065 0.4140625 52.0546875 C-0.40693436 52.07219559 -1.22793121 52.08970367 -2.07380676 52.10774231 C-6.09390077 52.09254668 -8.05365523 51.93443875 -11.53198242 49.72729492 C-16.55098122 44.46973311 -14.84096628 35.56512865 -14.88525391 28.6628418 C-14.90180957 26.77046406 -14.9290946 24.87814875 -14.96728516 22.98608398 C-15.02210097 20.25601811 -15.04393443 17.52741735 -15.05859375 14.796875 C-15.08126312 13.95400436 -15.1039325 13.11113373 -15.12728882 12.24272156 C-15.11263883 8.16135463 -14.83970747 6.10594564 -12.59838867 2.59521484 C-8.33782341 -0.1396694 -4.96776971 -0.07481589 0 0 Z " fill="#AAC7C8" transform="translate(338.53515625,136.37109375)"/>
<path d="M0 0 C0.91567245 -0.00241196 1.83134491 -0.00482391 2.77476501 -0.00730896 C4.70543765 -0.00633174 6.63613873 0.00703209 8.56665039 0.03198242 C11.52131222 0.06633612 14.47298961 0.05262444 17.42773438 0.03320312 C19.30600231 0.04010061 21.18426253 0.04977211 23.0625 0.0625 C24.38605247 0.0550602 24.38605247 0.0550602 25.73634338 0.04747009 C29.38683315 0.11759164 31.8092095 0.25788356 35.01928711 2.07446289 C37.23585652 5.99136304 37.03659777 9.63675768 36.99609375 14.06640625 C36.99992065 14.98349365 37.00374756 15.90058105 37.00769043 16.84545898 C37.01040924 18.78207498 37.00305021 20.71872772 36.98632812 22.65527344 C36.96491769 25.61867178 36.98613044 28.57964576 37.01171875 31.54296875 C37.00907547 33.4257866 37.00395048 35.30860294 36.99609375 37.19140625 C37.00419067 38.07691162 37.0122876 38.96241699 37.02062988 39.87475586 C36.92706261 46.01671463 36.92706261 46.01671463 34.55664062 49.15625 C30.43577842 52.05739855 26.81052803 51.82345495 21.9140625 51.8671875 C21.06310501 51.87525925 20.21214752 51.88333099 19.33540344 51.89164734 C17.53229816 51.90548919 15.72916666 51.9162109 13.92602539 51.92407227 C11.17348308 51.94127414 8.42214537 51.98515674 5.66992188 52.02929688 C3.91797758 52.03942488 2.16602308 52.04794065 0.4140625 52.0546875 C-0.40693436 52.07219559 -1.22793121 52.08970367 -2.07380676 52.10774231 C-6.09390077 52.09254668 -8.05365523 51.93443875 -11.53198242 49.72729492 C-16.55098122 44.46973311 -14.84096628 35.56512865 -14.88525391 28.6628418 C-14.90180957 26.77046406 -14.9290946 24.87814875 -14.96728516 22.98608398 C-15.02210097 20.25601811 -15.04393443 17.52741735 -15.05859375 14.796875 C-15.08126312 13.95400436 -15.1039325 13.11113373 -15.12728882 12.24272156 C-15.11263883 8.16135463 -14.83970747 6.10594564 -12.59838867 2.59521484 C-8.33782341 -0.1396694 -4.96776971 -0.07481589 0 0 Z " fill="#AAC7C8" transform="translate(82.53515625,136.37109375)"/>
<path d="M0 0 C0.85095749 -0.00807175 1.70191498 -0.01614349 2.57865906 -0.02445984 C4.38176434 -0.03830169 6.18489584 -0.0490234 7.98803711 -0.05688477 C10.74057942 -0.07408664 13.49191713 -0.11796924 16.24414062 -0.16210938 C17.99608492 -0.17223738 19.74803942 -0.18075315 21.5 -0.1875 C22.32099686 -0.20500809 23.14199371 -0.22251617 23.98786926 -0.24055481 C28.00796327 -0.22535918 29.96771773 -0.06725125 33.44604492 2.13989258 C37.14569685 6.01539633 36.62613322 9.68822623 36.65234375 14.7890625 C36.65804382 15.64001999 36.6637439 16.49097748 36.6696167 17.36772156 C36.67907173 19.17083491 36.68560267 20.97396558 36.68945312 22.77709961 C36.69914362 25.52944323 36.7301555 28.28103533 36.76171875 31.03320312 C36.76825038 32.78515182 36.77350022 34.53710585 36.77734375 36.2890625 C36.78969055 37.11005936 36.80203735 37.93105621 36.8147583 38.77693176 C36.79675804 43.41915609 36.46854137 46.4687222 33.44921875 50.23828125 C31.19605316 51.36486404 29.93119808 51.38153879 27.43017578 51.4152832 C26.60236603 51.42811844 25.77455627 51.44095367 24.92166138 51.45417786 C24.02583344 51.46156479 23.13000549 51.46895172 22.20703125 51.4765625 C21.28711395 51.48463425 20.36719666 51.49270599 19.41940308 51.50102234 C17.47086473 51.51486482 15.52230212 51.52558624 13.57373047 51.53344727 C10.59295813 51.55067296 7.61329119 51.59455862 4.6328125 51.63867188 C2.74089358 51.6487976 0.84896523 51.65731408 -1.04296875 51.6640625 C-2.38063797 51.69032463 -2.38063797 51.69032463 -3.74533081 51.71711731 C-7.43071003 51.70419123 -9.86331493 51.62395707 -13.11181641 49.80151367 C-15.31499965 45.87697671 -15.12254631 42.23163711 -15.08203125 37.80078125 C-15.08585815 36.88369385 -15.08968506 35.96660645 -15.09362793 35.02172852 C-15.09634674 33.08511252 -15.08898771 31.14845978 -15.07226562 29.21191406 C-15.05085519 26.24851572 -15.07206794 23.28754174 -15.09765625 20.32421875 C-15.09501297 18.4414009 -15.08988798 16.55858456 -15.08203125 14.67578125 C-15.09012817 13.79027588 -15.0982251 12.90477051 -15.10656738 11.99243164 C-15.01300011 5.85047287 -15.01300011 5.85047287 -12.64257812 2.7109375 C-8.52171592 -0.19021105 -4.89646553 0.04373255 0 0 Z " fill="#AAC7C8" transform="translate(168.55078125,323.76171875)"/>
<path d="M0 0 C0.85095749 -0.00570007 1.70191498 -0.01140015 2.57865906 -0.01727295 C4.38177241 -0.02672798 6.18490308 -0.03325892 7.98803711 -0.03710938 C10.74038073 -0.04679987 13.49197283 -0.07781175 16.24414062 -0.109375 C17.99608932 -0.11590663 19.74804335 -0.12115647 21.5 -0.125 C22.73149529 -0.1435202 22.73149529 -0.1435202 23.98786926 -0.16241455 C28.63009359 -0.14441429 31.6796597 0.18380238 35.44921875 3.203125 C36.57580154 5.45629059 36.59247629 6.72114567 36.6262207 9.22216797 C36.64547356 10.4638826 36.64547356 10.4638826 36.66511536 11.73068237 C36.67250229 12.62651031 36.67988922 13.52233826 36.6875 14.4453125 C36.69557175 15.3652298 36.70364349 16.28514709 36.71195984 17.23294067 C36.72580232 19.18147902 36.73652374 21.13004163 36.74438477 23.07861328 C36.76161046 26.05938562 36.80549612 29.03905256 36.84960938 32.01953125 C36.8597351 33.91145017 36.86825158 35.80337852 36.875 37.6953125 C36.89250809 38.58709198 36.91001617 39.47887146 36.92805481 40.39767456 C36.91512873 44.08305378 36.83489457 46.51565868 35.01245117 49.76416016 C31.08791421 51.9673434 27.44257461 51.77489006 23.01171875 51.734375 C21.63608765 51.74011536 21.63608765 51.74011536 20.23266602 51.74597168 C18.29605002 51.74869049 16.35939728 51.74133146 14.42285156 51.72460938 C11.45945322 51.70319894 8.49847924 51.72441169 5.53515625 51.75 C3.6523384 51.74735672 1.76952206 51.74223173 -0.11328125 51.734375 C-0.99878662 51.74247192 -1.88429199 51.75056885 -2.79663086 51.75891113 C-8.93858963 51.66534386 -8.93858963 51.66534386 -12.078125 49.29492188 C-14.97927355 45.17405967 -14.74532995 41.54880928 -14.7890625 36.65234375 C-14.79713425 35.80138626 -14.80520599 34.95042877 -14.81352234 34.07368469 C-14.82736419 32.27057941 -14.8380859 30.46744791 -14.84594727 28.66430664 C-14.86314914 25.91176433 -14.90703174 23.16042662 -14.95117188 20.40820312 C-14.96129988 18.65625883 -14.96981565 16.90430433 -14.9765625 15.15234375 C-14.99407059 14.33134689 -15.01157867 13.51035004 -15.02961731 12.66447449 C-15.01442168 8.64438048 -14.85631375 6.68462602 -12.64916992 3.20629883 C-8.77366617 -0.4933531 -5.10083627 0.02621053 0 0 Z " fill="#AAC7C8" transform="translate(82.55078125,323.796875)"/>
<path d="M0 0 C0.91471573 -0.00619858 1.82943146 -0.01239716 2.77186584 -0.01878357 C4.70426368 -0.02587983 6.63672268 -0.02271109 8.5690918 -0.01000977 C11.52181907 0.00384368 14.47136913 -0.03020119 17.42382812 -0.06835938 C19.30338619 -0.06931073 21.18294821 -0.06745089 23.0625 -0.0625 C23.94284409 -0.07575821 24.82318817 -0.08901642 25.73020935 -0.10267639 C29.91646766 -0.03927872 32.07672258 0.22808418 35.65649414 2.55297852 C38.27999426 6.62565641 38.28736009 9.66032339 38.19140625 14.41015625 C38.19144653 15.2568689 38.19148682 16.10358154 38.19152832 16.97595215 C38.18618098 18.76122484 38.16863168 20.54649755 38.13964844 22.33154297 C38.09778991 25.0577012 38.0985826 27.78138699 38.10546875 30.5078125 C38.09497536 32.24611084 38.08203645 33.9843965 38.06640625 35.72265625 C38.06620483 36.53424194 38.06600342 37.34582764 38.0657959 38.18200684 C37.97009285 42.77890274 37.57742452 45.84257334 34.59765625 49.56640625 C30.71694367 52.15354797 27.45128199 51.8721798 22.94921875 51.8671875 C22.09967621 51.87147263 21.25013367 51.87575775 20.37484741 51.88017273 C18.57770681 51.88591489 16.78054297 51.88641713 14.98339844 51.88208008 C12.23982827 51.87892599 9.49734263 51.90235956 6.75390625 51.92773438 C5.00651177 51.93000804 3.25911441 51.93071055 1.51171875 51.9296875 C0.69385895 51.93889725 -0.12400085 51.94810699 -0.96664429 51.95759583 C-5.59506963 51.92019129 -8.64258429 51.57046047 -12.40234375 48.56640625 C-13.52892654 46.31324066 -13.54560129 45.04838558 -13.5793457 42.54736328 C-13.59218094 41.71955353 -13.60501617 40.89174377 -13.61824036 40.03884888 C-13.62562729 39.14302094 -13.63301422 38.24719299 -13.640625 37.32421875 C-13.64869675 36.40430145 -13.65676849 35.48438416 -13.66508484 34.53659058 C-13.67892732 32.58805223 -13.68964874 30.63948962 -13.69750977 28.69091797 C-13.71473546 25.71014563 -13.75862112 22.73047869 -13.80273438 19.75 C-13.8128601 17.85808108 -13.82137658 15.96615273 -13.828125 14.07421875 C-13.84563309 13.18243927 -13.86314117 12.29065979 -13.88117981 11.37185669 C-13.86825149 7.68584017 -13.78954133 5.25493999 -11.96337891 2.00756836 C-8.05158264 -0.1937027 -4.42024848 -0.0248466 0 0 Z " fill="#AAC7C8" transform="translate(167.40234375,136.43359375)"/>
<path d="M0 0 C0.89110474 -0.00478363 1.78220947 -0.00956726 2.70031738 -0.01449585 C4.57968924 -0.01789022 6.4591205 -0.00872012 8.33837891 0.01220703 C11.21000198 0.03898094 14.07771679 0.01244539 16.94921875 -0.01953125 C18.77865443 -0.01622707 20.60808769 -0.00982066 22.4375 0 C23.29283325 -0.01012115 24.1481665 -0.02024231 25.02941895 -0.03067017 C29.14107281 0.049897 31.24172826 0.35421859 34.75952148 2.63916016 C37.43168065 6.76477412 37.42434528 9.90561016 37.34765625 14.7265625 C37.35006821 15.59547119 37.35248016 16.46437988 37.35496521 17.35961914 C37.35398816 19.19194108 37.34062845 21.02429305 37.31567383 22.85644531 C37.28135718 25.65532061 37.29502272 28.451038 37.31445312 31.25 C37.30755436 33.03386756 37.29788169 34.81772699 37.28515625 36.6015625 C37.29011612 37.43502197 37.29507599 38.26848145 37.30018616 39.12719727 C37.21883253 43.15633572 37.02114791 45.18857319 34.80834961 48.66796875 C30.9454178 52.35804124 27.25550325 51.85690468 22.16796875 51.90234375 C21.31701126 51.9104155 20.46605377 51.91848724 19.58930969 51.92680359 C17.78620441 51.94064544 15.98307291 51.95136715 14.17993164 51.95922852 C11.42738933 51.97643039 8.67605162 52.02031299 5.92382812 52.06445312 C4.17188383 52.07458113 2.41992933 52.0830969 0.66796875 52.08984375 C-0.15302811 52.10735184 -0.97402496 52.12485992 -1.81990051 52.14289856 C-5.83999452 52.12770293 -7.79974898 51.969595 -11.27807617 49.76245117 C-16.29707497 44.50488936 -14.58706003 35.6002849 -14.63134766 28.69799805 C-14.64790332 26.80562031 -14.67518835 24.913305 -14.71337891 23.02124023 C-14.76819472 20.29117436 -14.79002818 17.5625736 -14.8046875 14.83203125 C-14.82735687 13.98916061 -14.85002625 13.14628998 -14.87338257 12.27787781 C-14.8586962 8.18637371 -14.59062658 6.14437371 -12.32861328 2.63256836 C-8.14182602 -0.07197143 -4.89113908 -0.05787683 0 0 Z " fill="#AAC7C8" transform="translate(253.28125,136.3359375)"/>
<path d="M0 0 C3.35234564 2.4251011 4.77884572 3.8450832 5.5625 7.9375 C4.37911706 14.38036269 -0.9815345 19.55835694 -5.0625 24.5 C-9.2630259 29.62558554 -13.42471846 34.77423687 -17.5 40 C-21.98161405 45.74040225 -26.55957313 51.39694172 -31.1640625 57.0390625 C-35.10824338 61.8804978 -38.9817766 66.77204476 -42.82275391 71.69555664 C-46.96986371 76.99682205 -51.21920529 82.2128347 -55.49804688 87.40820312 C-58.03019123 90.49951612 -60.46637193 93.61063315 -62.76171875 96.8828125 C-65.63851695 100.8892435 -67.07412071 101.60607014 -71.75 102.5625 C-76.84963495 101.67987087 -79.40327335 98.57359657 -83 95 C-84.12229176 93.9035393 -85.24469604 92.80719376 -86.3671875 91.7109375 C-96.81112856 81.4300266 -96.81112856 81.4300266 -97.4375 76.6875 C-97 73 -97 73 -94.4375 70 C-91 68 -91 68 -87.65625 68.02734375 C-83.26536379 69.19543207 -81.01471655 71.29178706 -78.0625 74.5625 C-77.56943359 75.08263672 -77.07636719 75.60277344 -76.56835938 76.13867188 C-75.36467071 77.41247833 -74.18027648 78.70447049 -73 80 C-68.94568733 76.10277325 -65.39370224 71.94499918 -61.875 67.5625 C-61.30587891 66.85802734 -60.73675781 66.15355469 -60.15039062 65.42773438 C-56.11156963 60.41635448 -52.12704983 55.36383494 -48.16552734 50.29125977 C-44.66356631 45.81681262 -41.09226965 41.40215167 -37.5 37 C-33.39702508 31.96873381 -29.32265298 26.91815126 -25.3125 21.8125 C-24.64831055 20.96703613 -24.64831055 20.96703613 -23.97070312 20.10449219 C-21.68966578 17.19020662 -19.4325091 14.25964419 -17.19921875 11.30859375 C-16.5189563 10.4127356 -16.5189563 10.4127356 -15.82495117 9.4987793 C-14.96532855 8.36417881 -14.10976468 7.22648738 -13.2590332 6.08520508 C-9.31278886 0.87563341 -6.62928476 -0.80008609 0 0 Z " fill="#FCFEFD" transform="translate(430,333)"/>
<path d="M0 0 C1.78854404 -0.01653657 3.57702261 -0.04379646 5.36523438 -0.08203125 C7.94891511 -0.13697269 10.53104709 -0.15870078 13.11523438 -0.17333984 C13.90919617 -0.19600922 14.70315796 -0.21867859 15.5211792 -0.24203491 C19.63726345 -0.22647409 22.17717231 0.12363296 25.43261719 2.7578125 C29.09324641 6.5373303 29.06512828 8.29155251 29.04101562 13.45166016 C29.03779297 14.66337891 29.03457031 15.87509766 29.03125 17.12353516 C29.01868164 19.03005859 29.01868164 19.03005859 29.00585938 20.97509766 C29.00134766 22.25384766 28.99683594 23.53259766 28.9921875 24.85009766 C28.98037151 28.01678411 28.96243559 31.18344662 28.94335938 34.35009766 C34.55335938 34.35009766 40.16335938 34.35009766 45.94335938 34.35009766 C45.94335938 34.68009766 45.94335938 35.01009766 45.94335938 35.35009766 C45.2645874 35.36468018 44.58581543 35.3792627 43.88647461 35.39428711 C22.29972165 35.91134603 2.10289818 37.92321305 -17.20117188 48.43212891 C-19.05664062 49.35009766 -19.05664062 49.35009766 -21.05664062 49.35009766 C-23.69559097 45.42366142 -23.39784897 41.15559257 -23.42773438 36.60400391 C-23.43676285 35.75587631 -23.44579132 34.90774872 -23.45509338 34.03392029 C-23.46957964 32.24278282 -23.47847859 30.45159262 -23.48217773 28.66040039 C-23.49408576 25.92519886 -23.54329379 23.19224594 -23.59375 20.45751953 C-23.60321356 18.71469197 -23.61044892 16.97185059 -23.61523438 15.22900391 C-23.63476669 14.41428116 -23.65429901 13.59955841 -23.67442322 12.76014709 C-23.64019559 8.43773913 -23.45646918 6.84657204 -20.64672852 3.35766602 C-14.74233786 -1.2188072 -7.1969141 0.0487703 0 0 Z " fill="#AAC7C8" transform="translate(347.056640625,229.64990234375)"/>
<path d="M0 0 C0.77403168 0.00141495 1.54806335 0.0028299 2.34555054 0.00428772 C4.82155192 0.00989222 7.29746338 0.02244542 9.7734375 0.03515625 C11.45051953 0.04017067 13.12760297 0.04473368 14.8046875 0.04882812 C18.91930556 0.0598631 23.03385628 0.07713071 27.1484375 0.09765625 C25.86893102 4.04262786 24.42670838 7.78604528 22.68603516 11.55297852 C15.86988219 26.35777946 13.15070412 40.74950896 12.5859375 57.03515625 C12.54275391 58.19595703 12.49957031 59.35675781 12.45507812 60.55273438 C12.34958908 63.40093857 12.24747195 66.24922154 12.1484375 69.09765625 C11.8184375 69.09765625 11.4884375 69.09765625 11.1484375 69.09765625 C11.1484375 63.48765625 11.1484375 57.87765625 11.1484375 52.09765625 C9.91867187 52.1440625 8.68890625 52.19046875 7.421875 52.23828125 C5.7890869 52.27581661 4.15627239 52.31221487 2.5234375 52.34765625 C1.71519531 52.38117188 0.90695313 52.4146875 0.07421875 52.44921875 C-5.38756097 52.53802818 -8.577823 51.84560445 -12.8515625 48.09765625 C-14.14616605 44.2138456 -14.05343903 40.49979592 -14.08984375 36.44921875 C-14.0979155 35.59967621 -14.10598724 34.75013367 -14.11430359 33.87484741 C-14.12812798 32.07771842 -14.13885749 30.28056336 -14.14672852 28.48339844 C-14.16395531 25.73972779 -14.2078565 22.99725817 -14.25195312 20.25390625 C-14.26207939 18.50651926 -14.2705957 16.75912205 -14.27734375 15.01171875 C-14.29485184 14.19385895 -14.31235992 13.37599915 -14.33039856 12.53335571 C-14.3151715 8.52174501 -14.15404283 6.57399772 -11.94995117 3.10302734 C-8.20560964 -0.47533465 -4.92845518 -0.03368002 0 0 Z " fill="#AAC7C8" transform="translate(252.8515625,323.90234375)"/>
<path d="M0 0 C4.46876455 3.07848225 8.07974831 6.73924494 9.8125 11.9375 C10.09781497 15.80755156 10.09023843 19.68310905 10.125 23.5625 C10.15400391 24.61824219 10.18300781 25.67398438 10.21289062 26.76171875 C10.2673951 33.52865921 9.60954781 39.18542231 5.8125 44.9375 C1.41531006 49.07354836 -2.4774151 50.6247979 -8.4375 51.3125 C-13.3567315 50.82057685 -16.47840239 49.17086552 -20.1875 45.9375 C-25.43759347 39.0429807 -25.3983836 32.41278686 -25.4375 24.125 C-25.458125 23.04412109 -25.47875 21.96324219 -25.5 20.84960938 C-25.5331779 14.0937588 -25.24231196 9.24919388 -20.46875 4.07421875 C-19.8809375 3.59597656 -19.293125 3.11773437 -18.6875 2.625 C-18.0996875 2.13386719 -17.511875 1.64273437 -16.90625 1.13671875 C-11.97162911 -2.30630083 -5.46614795 -1.82204932 0 0 Z " fill="#38404F" transform="translate(383.1875,9.0625)"/>
<path d="M0 0 C4.41009494 2.63948612 6.82468021 5.73620876 8.75 10.5 C9.45827091 15.01847934 9.4495167 19.4346104 9.375 24 C9.39433594 25.18464844 9.41367188 26.36929688 9.43359375 27.58984375 C9.39315182 34.84512518 8.64942297 39.97373909 3.75 45.5 C0.34040721 48.76667573 -3.49779519 50.77307299 -8.25 51.0625 C-13.60693348 50.65204734 -17.99582434 48.7206978 -21.828125 44.9453125 C-26.38915913 38.83772082 -26.13055577 31.84980148 -26.25 24.5 C-26.30027344 23.40300781 -26.35054687 22.30601563 -26.40234375 21.17578125 C-26.59221684 15.12262704 -26.47432888 10.70053045 -23.25 5.5 C-16.67047243 -1.34395303 -9.08815874 -3.91463384 0 0 Z " fill="#38404F" transform="translate(179.25,9.5)"/>
<path d="M0 0 C4.4287691 2.47490038 6.81790227 5.35509477 9 9.9375 C10.07695292 14.78378815 9.94035974 19.36928752 9.75 24.3125 C9.70552734 26.10107422 9.70552734 26.10107422 9.66015625 27.92578125 C9.28846883 36.510854 8.67414742 40.69021008 2.3125 46.5625 C-2.54611083 49.88057569 -6.32943684 50.92497205 -12.25 50.3125 C-17.70396813 47.86761774 -20.76204141 45.13408982 -24.25 40.3125 C-26.04697446 34.92157663 -25.51999618 29.14167361 -25.5625 23.5 C-25.59150391 22.22833984 -25.62050781 20.95667969 -25.65039062 19.64648438 C-25.72990795 7.9696705 -25.72990795 7.9696705 -21.25 3.3125 C-14.53322994 -1.75934678 -7.83160752 -3.63035264 0 0 Z " fill="#37404E" transform="translate(281.25,9.6875)"/>
<path d="M0 0 C4.87585055 3.32444356 7.91546593 7.29735831 9.75 12.875 C10.09720619 16.8766985 9.89595173 20.86368156 9.75 24.875 C9.70552734 26.55335937 9.70552734 26.55335937 9.66015625 28.265625 C9.35331584 34.70178974 8.98982661 40.73658327 4.75 45.875 C-0.41897381 49.90185431 -5.75828235 51.51352961 -12.25 50.875 C-17.69056158 48.6657397 -21.23367967 45.41081094 -24.22900391 40.39453125 C-26.31409589 35.24911058 -25.96429761 29.84596695 -25.875 24.375 C-25.89433594 23.19035156 -25.91367187 22.00570313 -25.93359375 20.78515625 C-25.8940411 13.68941071 -25.27413822 8.18403842 -20.25 2.875 C-13.94490926 -1.74363981 -7.35493704 -2.54593974 0 0 Z " fill="#37404E" transform="translate(76.25,9.125)"/>
</svg>
